<svg xmlns="http://www.w3.org/2000/svg" width="1240" height="1650" viewBox="0 0 1240 1650">
  <rect width="1240" height="1650" fill="#f8f2e2"/>
  <!-- printed bill book header -->
  <rect x="70" y="60" width="1100" height="150" fill="none" stroke="#8a2f23" stroke-width="4"/>
  <text x="620" y="125" text-anchor="middle" font-family="Devanagari MT, serif" font-size="52" fill="#8a2f23">श्री गणेश जनरल स्टोर</text>
  <text x="620" y="180" text-anchor="middle" font-family="Helvetica, sans-serif" font-size="28" fill="#8a2f23">CASH / CREDIT MEMO — Ph: 98xxxxxx21</text>
  <!-- printed table -->
  <g stroke="#b04a3c" stroke-width="2.5" opacity="0.9">
    <line x1="70" y1="300" x2="1170" y2="300"/>
    <line x1="70" y1="380" x2="1170" y2="380"/>
    <line x1="70" y1="470" x2="1170" y2="470"/>
    <line x1="70" y1="560" x2="1170" y2="560"/>
    <line x1="70" y1="650" x2="1170" y2="650"/>
    <line x1="70" y1="740" x2="1170" y2="740"/>
    <line x1="70" y1="830" x2="1170" y2="830"/>
    <line x1="70" y1="920" x2="1170" y2="920"/>
    <line x1="70" y1="1010" x2="1170" y2="1010"/>
    <line x1="70" y1="300" x2="70" y2="1010"/>
    <line x1="200" y1="300" x2="200" y2="1010"/>
    <line x1="700" y1="300" x2="700" y2="1010"/>
    <line x1="860" y1="300" x2="860" y2="1010"/>
    <line x1="1170" y1="300" x2="1170" y2="1010"/>
  </g>
  <g font-family="Helvetica, sans-serif" font-size="30" fill="#8a2f23">
    <text x="95" y="348">Bill No.</text>
    <text x="380" y="348">Item</text>
    <text x="745" y="348">Qty</text>
    <text x="960" y="348">Amount</text>
  </g>
  <!-- handwritten date -->
  <text x="880" y="265" font-family="Bradley Hand, cursive" font-size="38" fill="#233468" transform="rotate(-1 880 265)">6/7/2026</text>

  <!-- handwritten rows -->
  <g fill="#233468">
    <g transform="rotate(0.4 620 430)" font-family="Bradley Hand, Marker Felt, cursive">
      <text x="95" y="438" font-size="38">101</text>
      <text x="225" y="440" font-size="40">Parle-G carton</text>
      <text x="745" y="438" font-size="40">12</text>
      <text x="905" y="438" font-size="42">720/-</text>
    </g>
    <g transform="rotate(-0.5 620 520)" font-family="Devanagari MT, Kohinoor Devanagari, cursive">
      <text x="95" y="528" font-size="38" font-family="Bradley Hand, cursive">102</text>
      <text x="225" y="530" font-size="42">सरसों तेल 5L</text>
      <text x="745" y="528" font-size="40" font-family="Bradley Hand, cursive">1</text>
      <text x="905" y="528" font-size="42" font-family="Bradley Hand, cursive">890</text>
    </g>
    <g transform="rotate(0.3 620 610)" font-family="Bradley Hand, Marker Felt, cursive">
      <text x="95" y="618" font-size="38">103</text>
      <text x="225" y="620" font-size="40">Surf Excel 1kg</text>
      <text x="745" y="618" font-size="40">4</text>
      <text x="905" y="618" font-size="42">560/-</text>
    </g>
    <g transform="rotate(-0.4 620 700)" font-family="Devanagari MT, Kohinoor Devanagari, cursive">
      <text x="95" y="708" font-size="38" font-family="Bradley Hand, cursive">104</text>
      <text x="225" y="710" font-size="42">बासमती चावल 10kg</text>
      <text x="745" y="708" font-size="40" font-family="Bradley Hand, cursive">2</text>
      <text x="905" y="708" font-size="42" font-family="Bradley Hand, cursive">1840</text>
    </g>
    <g transform="rotate(0.5 620 790)" font-family="Bradley Hand, Marker Felt, cursive">
      <text x="95" y="798" font-size="38">105</text>
      <text x="225" y="800" font-size="40">Maggi box + ketchup</text>
      <text x="745" y="798" font-size="40">6+1</text>
      <text x="905" y="798" font-size="42">495</text>
    </g>
    <!-- total -->
    <g transform="rotate(-0.3 950 975)" font-family="Bradley Hand, cursive">
      <text x="620" y="985" font-size="42" fill="#1c2c5e">TOTAL →</text>
      <text x="890" y="985" font-size="48" fill="#1c2c5e">₹4505/-</text>
      <line x1="880" y1="1000" x2="1120" y2="996" stroke="#1c2c5e" stroke-width="3"/>
      <line x1="880" y1="1006" x2="1120" y2="1002" stroke="#1c2c5e" stroke-width="3"/>
    </g>
  </g>

  <!-- signature -->
  <text x="920" y="1120" font-family="Bradley Hand, cursive" font-size="40" fill="#233468" transform="rotate(-4 920 1120)">Ganesh ✍</text>
  <!-- stamp -->
  <g transform="rotate(-8 300 1150)" opacity="0.5">
    <ellipse cx="300" cy="1150" rx="150" ry="70" fill="none" stroke="#3b5bab" stroke-width="4"/>
    <text x="300" y="1140" text-anchor="middle" font-family="Helvetica" font-size="26" fill="#3b5bab">SHRI GANESH</text>
    <text x="300" y="1175" text-anchor="middle" font-family="Helvetica" font-size="22" fill="#3b5bab">GENERAL STORE</text>
  </g>
</svg>
